<svg width="41" height="64" viewBox="0 0 41 64" fill="none" xmlns="http://www.w3.org/2000/svg">
<path d="M22.1973 23.8799C22.016 21.9203 22.1547 16.5933 27.2578 9.18569C27.6438 8.62671 27.5738 7.87282 27.0944 7.39356C25.0139 5.31302 23.7257 4.00014 22.8222 3.08144C21.6342 1.8701 21.0918 1.31814 20.298 0.598424C19.768 0.121986 18.966 0.11369 18.4304 0.580706C9.53555 8.32056 -0.343913 24.3138 1.08568 43.908C1.92338 55.4133 10.3156 63.7644 21.0397 63.7644C32.0451 63.7644 40.999 54.8119 40.999 43.8063C40.999 33.1894 32.666 24.4827 22.1973 23.8799ZM21.0397 60.9519C11.8303 60.9519 4.61916 53.6981 3.89002 43.7048C3.89002 43.7048 3.89002 43.7048 3.89002 43.7034C2.28184 21.6662 15.3816 7.35236 19.3395 3.5621C19.7254 3.94249 20.1662 4.3901 20.8158 5.05202C21.5985 5.84852 22.6698 6.93892 24.2902 8.56497C18.0953 18.1093 19.264 24.9098 19.7761 25.8849C20.0193 26.3477 20.5178 26.6595 21.0397 26.6595C30.4947 26.6595 38.1865 34.3512 38.1865 43.8063C38.1865 53.2601 30.4947 60.9519 21.0397 60.9519Z" fill="white"/>
</svg>
